<?xml version="1.0" standalone="yes"?>
<svg xmlns="http://www.w3.org/2000/svg" width="159" height="180">
<path style="fill:#369185; stroke:none;" d="M22 21L23 22L22 21M136 21L137 22L136 21M73.6667 22.3333L74.3333 22.6667L73.6667 22.3333z"/>
<path style="fill:#51d6c3; stroke:none;" d="M47 71L48 71C50.4777 57.2703 69.0778 39.3079 84 43.3187C96.822 46.7649 106.364 59.3693 111 71C118.503 52.604 97.227 19.976 77 22.1883C54.3593 24.6646 47.0021 52.1231 47 71z"/>
<path style="fill:#369185; stroke:none;" d="M83.6667 22.3333L84.3333 22.6667L83.6667 22.3333M137 22L138 23L137 22M71 23L72 24L71 23M86.6667 23.3333L87.3333 23.6667L86.6667 23.3333M138 23L139 24L138 23M68 24L69 25L68 24M89 24L90 25L89 24M67 25L68 26L67 25M91 25L92 26L91 25z"/>
<path style="fill:#f4cc5f; stroke:none;" d="M16 26L17 27L16 26z"/>
<path style="fill:#369185; stroke:none;" d="M65 26L66 27L65 26M93 26L94 27L93 26M94 27L95 28L94 27M95 28L96 29L95 28M96 29L97 30L96 29M60 30L61 31L60 30M97 30L98 31L97 30M145 30L146 31L145 30M98 31L99 32L98 31M146 31L147 32L146 31M11 32L12 33L11 32M58 32L59 33L58 32M99 32L100 33L99 32M147 32L148 33L147 32M10 33L11 34L10 33M100 33L101 34L100 33z"/>
<path style="fill:#f4cc5f; stroke:none;" d="M148 33L149 34L148 33z"/>
<path style="fill:#51d6c3; stroke:none;" d="M9 34L10 35L9 34z"/>
<path style="fill:#369185; stroke:none;" d="M57 34L58 35L57 34M101 34L102 35L101 34M56 35L57 36L56 35M102 36L103 37L102 36M150 36L151 37L150 36M7 37L8 38L7 37M103 37L104 38L103 37M151 37L152 38L151 37z"/>
<path style="fill:#51d6c3; stroke:none;" d="M6 38L7 39L6 38z"/>
<path style="fill:#369185; stroke:none;" d="M54 38L55 39L54 38z"/>
<path style="fill:#f4cc5f; stroke:none;" d="M152 38L153 39L152 38z"/>
<path style="fill:#369185; stroke:none;" d="M104 39L105 40L104 39M53 40L54 41L53 40M153 40L154 41L153 40M4 41L5 42L4 41M105 41L106 42L105 41M52 42L53 43L52 42M78 42L78 43L81 43L78 42M106.333 42.6667L106.667 43.3333L106.333 42.6667M3 43L4 44L3 43M73.6667 43.3333L74.3333 43.6667L73.6667 43.3333z"/>
<path style="fill:#304a5c; stroke:none;" d="M55 76L56 76L60 58L62 64L63 64L72 57L77 64C78.3857 56.3544 83.6354 53.1039 91 52C91.1356 58.3326 92.6451 62.8153 99 65L99 58L100 58L103 77C112.869 62.1354 98.9229 47.7115 84 43.7639C73.2791 40.9279 57.6017 49.9576 53.2685 60C51.1618 64.8824 54.1742 71.1226 55 76z"/>
<path style="fill:#369185; stroke:none;" d="M83 43L83 44L86 44L83 43z"/>
<path style="fill:#51d6c3; stroke:none;" d="M155 43L156 44L155 43z"/>
<path style="fill:#f4cc5f; stroke:none;" d="M2 44L3 45L2 44z"/>
<path style="fill:#369185; stroke:none;" d="M51 44L52 45L51 44M71 44L72 45L71 44M86.6667 44.3333L87.3333 44.6667L86.6667 44.3333M69 45L70 46L69 45M89 45L90 46L89 45M107 45L108 46L107 45M156 45L157 46L156 45z"/>
<path style="fill:#51d6c3; stroke:none;" d="M1 46L2 47L1 46z"/>
<path style="fill:#369185; stroke:none;" d="M67 46L68 47L67 46M90 46L91 47L90 46z"/>
<path style="fill:#f4cc5f; stroke:none;" d="M158 46L159 47L158 46z"/>
<path style="fill:#369185; stroke:none;" d="M50 47L51 48L50 47M66 47L67 48L66 47M92 47L93 48L92 47M158 47L159 48L158 47M0 48L1 49L0 48M64 48L65 49L64 48M93 48L94 49L93 48M108 48L109 49L108 48M63 49L64 50L63 49M94.6667 49.3333L95.3333 49.6667L94.6667 49.3333M49 50L50 51L49 50M96 50L97 51L96 50M60 51L61 52L60 51M97 51L98 52L97 51M109.333 51.6667L109.667 52.3333L109.333 51.6667M59 52L60 53L59 52M87 52L88 53L87 52z"/>
<path style="fill:#f4cc5f; stroke:none;" d="M77 64L72 57C67.4916 57.9123 65.1439 59.9671 63 64L62 61L58 61L57.7461 84L66 107L92 107C92.0887 99.4926 96.7567 95.5949 99.5355 89C103.513 79.5605 104.007 67.495 100 58L99 58L99 65L91 61L92 59L90 59L91 52C83.4453 53.0231 78.2607 56.0635 77 64z"/>
<path style="fill:#369185; stroke:none;" d="M98 52L99 53L98 52M48.3333 53.6667L48.6667 54.3333L48.3333 53.6667M58 53L59 54L58 53M57 54L58 55L57 54M110 54L110 57L111 57L110 54M56 55L57 56L56 55M80 55L81 56L80 55M102 55L103 56L102 55M55 56L56 57L55 56M79 56L80 57L79 56M54 57L55 58L54 57z"/>
<path style="fill:#eff3f5; stroke:none;" d="M90.3333 57.6667L90.6667 58.3333L90.3333 57.6667z"/>
<path style="fill:#369185; stroke:none;" d="M47 58L47 61L48 61L47 58z"/>
<path style="fill:#f4cc5f; stroke:none;" d="M59 58L61 60L59 58z"/>
<path style="fill:#369185; stroke:none;" d="M91 58L92 59L91 58M104 58L105 59L104 58z"/>
<path style="fill:#eff3f5; stroke:none;" d="M59 59L59 61L61 61L59 59z"/>
<path style="fill:#369185; stroke:none;" d="M98 59L99 60L98 59z"/>
<path style="fill:#eff3f5; stroke:none;" d="M99 59L100 60L99 59z"/>
<path style="fill:#369185; stroke:none;" d="M105 59L106 60L105 59M52 60L53 61L52 60M58 60L59 61L58 60M77 60L78 61L77 60z"/>
<path style="fill:#eff3f5; stroke:none;" d="M91 60L92 61L91 60z"/>
<path style="fill:#369185; stroke:none;" d="M111 60L111 65L112 65L111 60M101 61L102 62L101 61M51 62L48 71L47 71L47 67L46 67C46.6748 82.7173 52.1955 97.3025 66 106L59.0694 87L51 62M63 62L64 63L63 62M73 62L74 63L73 62M93 62L95 64L93 62M107 62L108 63L107 62M74 63L75 64L74 63z"/>
<path style="fill:#eff3f5; stroke:none;" d="M93 63L94 64L93 63z"/>
<path style="fill:#369185; stroke:none;" d="M96 64L97 65L96 64M107 64C106.29 72.0836 102.516 82.8382 98.6759 90C95.6521 95.64 91.0803 99.235 93 106C102.397 99.3806 122.248 74.5956 107 64M57.3333 65.6667L57.6667 66.3333L57.3333 65.6667M102 67L102 71L103 71L102 67M56 72L56 76L57 76L56 72M102.333 75.6667L102.667 76.3333L102.333 75.6667z"/>
<path style="fill:#51d6c3; stroke:none;" d="M56 78L57 79L56 78M102 78L103 79L102 78M101 83L102 84L101 83M100 86L101 87L100 86M61 92L62 93L61 92z"/>
<path style="fill:#369185; stroke:none;" d="M53 96L54 97L53 96z"/>
<path style="fill:#51d6c3; stroke:none;" d="M52 150L43.8009 120L44.3326 108.603L66 107L56 96C30.5505 103.489 15.3666 149.976 52 150z"/>
<path style="fill:#eff3f5; stroke:none;" d="M93 96L94 97L93 96z"/>
<path style="fill:#51d6c3; stroke:none;" d="M92 105C96.8231 110.519 107.682 104.35 113.757 108.179C117.516 110.549 115.901 115.467 115.2 119C113.157 129.3 111.459 140.459 107 150C112.988 149.996 119.071 149.848 123.812 145.606C138.357 132.594 122.084 101.268 106 97.223C100.369 95.8069 96.9274 103.524 92 105z"/>
<path style="fill:#369185; stroke:none;" d="M105 96L106 97L105 96M51 97L52 98L51 97M107 97L108 98L107 97M49 98L50 99L49 98M108 98L109 99L108 98M48 99L49 100L48 99M110 99L111 100L110 99M45 101L46 102L45 101z"/>
<path style="fill:#51d6c3; stroke:none;" d="M66 101L67 102L66 101z"/>
<path style="fill:#369185; stroke:none;" d="M113 101L114 102L113 101M44 102L45 103L44 102M114 102L115 103L114 102M43 103L44 104L43 103M115 103L116 104L115 103M42 104L43 105L42 104M116 104L117 105L116 104M41 105L42 106L41 105M117 105L118 106L117 105M118 106L119 107L118 106z"/>
<path style="fill:#eff3f5; stroke:none;" d="M44.3187 108.028C41.0573 110.218 42.5817 114.878 43.1998 118C44.64 125.274 45.4729 143.552 51.314 148.397C54.4705 151.014 60.1945 150 64 150L94 150C97.7079 150 103.439 151.037 106.721 148.972C113.077 144.973 114.212 125.011 115.6 118C116.211 114.914 117.719 110.387 114.562 108.179C110.857 105.586 103.302 107 99 107L60 107C55.7273 107 48.0185 105.543 44.3187 108.028z"/>
<path id="a363f2f7-2464-40a1-ad01-344825aa0b75" data-name="Path 1423" d="M401.14067,585.57847c3.11-1.186,6.538-.757,9.872-.308,10.732,1.466,21.622,2.97,31.569,7.257,4.67,2,9.116,4.67,12.273,8.6,2.8,3.54,4.436,7.874,5.987,12.142l3.587,9.826a47.30032,47.30032,0,0,1,3.129,11.516c1.121,11.759-6.921,22.845-17.036,28.954s-22.023,8.284-33.624,10.563-23.247,4.8-34.8,7.472a140.08632,140.08632,0,0,1-16.373,3.222c-12.366,1.4-25.292-.663-37.042,3.428-4.67,1.635-9.256,4.063-14.1,5.193a87.74454,87.74454,0,0,1-9.751,1.485l-22.238,2.54a121.31294,121.31294,0,0,1-13.636,1.046c-9.713,0-19.268-2.3-28.7-4.6a7.25771,7.25771,0,0,1-2.8-1.13c-1.494-1.177-1.821-3.26-2.036-5.146q-1.429-12.525-2.5-25.077c-.224-2.718-.392-5.66,1.093-7.948,1.868-2.8,5.511-3.68,8.836-4.222a230.57994,230.57994,0,0,1,42.665-2.961c5.426-5.426,14.374-5.454,21.482-8.406a63.89712,63.89712,0,0,0,7.575-4.119,99.00057,99.00057,0,0,1,41.59-13.141,38.71437,38.71437,0,0,0,8.509-1.214c5.5-1.709,10.517-6.361,16.167-5.221.7-1.933,1.186-4.521,2.8-5.847.8-.682,1.793-1.139,2.531-1.868,1.56-1.578,1.7-4.063,1.466-6.267s-.757-4.464-.187-6.613a9.14077,9.14077,0,0,1,1.037-2.307C391.27767,587.59544,395.50869,585.11143,401.14067,585.57847Z" transform="translate(-113.2693 -156.48744)" fill="#2f2e41"/>
<ellipse id="f6be96d1-713f-4c17-812c-ecd79c56fe95" data-name="Ellipse 260" cx="192.85638" cy="464.78699" rx="133.56" ry="37.359" fill="#2f2e41"/>

</svg>
